<?xml version="1.0" encoding="UTF-8"?>
<svg id="Calque_2" data-name="Calque 2" xmlns="http://www.w3.org/2000/svg" viewBox="0 0 50.16 45.36">
  <defs>
    <linearGradient id="gradient-desk" x1="0%" y1="0%" x2="100%" y2="100%">
      <stop offset="0%" style="stop-color:#6c63ff;stop-opacity:1" />
      <stop offset="100%" style="stop-color:#4ecdc4;stop-opacity:1" />
    </linearGradient>
    <style>
      .cls-1 {
        fill: url(#gradient-desk);
      }
    </style>
  </defs>
  <g id="Calque_1-2" data-name="Calque 1">
    <path class="cls-1" d="M9.72,18.16s-3.14-.23-5.1,1.66C2.65,21.71-.03,25.83.02,30.14c0,0-.38,3.96,1.95,4.11,0,0,1.94.92,4.55-2.4,0,0,.6,1.86,1.69,1.58,0,0,.68.38,3.37-2.15l-.51-3.24s-1.3,2.02-2.15,1.55c-.85-.47.93-4.1.93-4.1l5.74-14.6s3.86-5.13,1.16-6.44c0,0-1.35-1.38-3.05,3.68l-4.94,12.36-.24.75s-.03,1.28-.45,1.81c0,0-2.31,6.96-4.18,8.12,0,0-1.17,1-.91-2.54,0,0,.92-5.7,4.09-7.47,0,0,.89-.65,1.45.09.56.74,1.19-3.09,1.19-3.09"/>
    <path class="cls-1" d="M19.92,27.36c-.71.79-2.17,2.16-3.93,2.46,0,0-1.74.18-2.07-.66l.23-.9.23-3.14s1.73-4.1,3.53-4.45l.52.35s-1.49,4.8-4.15,4.68l-.13,2.57s1.88-.36,3.81-2.56c0,0,3.36-3.79,2.71-6.13,0,0,.41-2.2-2.81-1.62,0,0-3.02.16-5.68,5.32,0,0-.53.3-.95,3.86l-.21.98.43,3.32s1.84,1.49,3.57,1.22c0,0,1.96.35,6.12-3.36l-.74-2.48s-.17.23-.47.56"/>
    <path class="cls-1" d="M19.91,27.54c.83-.87,1.54-3.31,2.43-3.74.36-.18.7-.12,1.03.1,1.19.81-.21,1.86-.13,3.1.06.84.6,1.48,1.29,1.85.46.25,1.18.44,1.79.17,2.71-1.17-1.27-4.45-1.75-5.17-.35-.53-.64-1.22-.77-1.89-.67-3.42,2.24-5.75,4.44-6.65,7.66-3.15,7.11,4.59,1.94,6.75-.38.16-.98.4-1.42.38-.44-.01-.8-.21-1-.44-1.24-1.45,2.08-2.27,2.68-2.68.07-.05.21-.17.28-.23.09-.08.21-.22.29-.32.3-.39.59-1.33-.02-1.56-1.68-.64-4.82,2.12-4.63,4.13.07.74.71,1.48,1.1,2.01.85,1.14,2.31,2.48,2.45,4.12.26,2.96-3.67,5.27-6.43,4.04-1.08-.48-1.59-1.56-2.37-2.3"/>
    <path class="cls-1" d="M35.99,20.97s.22-1.7,1.75-2.42c0,0,1.79-2.03,2.16-2.31.37-.28,9.21-8.97,8.6-14.02,0,0-.33-3.08-2.53-1.97,0,0-2.15.87-5.01,4.77,0,0-5.06,8.13-7.57,16.24,0,0-2.84,6.46-2.14,9.34,0,0,.25.85,1.61.07l2.05-4.06s-.7-8.88,3.32-11.71c0,0,4.56-10.64,7.17-11.71l.68.41s-2.07,7.74-7.85,11.3c-5.78,3.57-2.26,5.84-2.26,5.84"/>
    <path class="cls-1" d="M35.99,20.97c.09-.1.18-.2.29-.32.11-.12.16-.15.29-.32.5-.64,7.33-7.25,7.81-4.08.08.57-.29.97-.54,1.15-1.07.77-2.63,1.06-3.48,2.08-1.14,1.38-1.5,6.83-.04,7.59,1.62.84,3.89-2.07,4.52-3.02.72-1.08,1.42-3.19,3.07-3.16,1.37,3.25-9.09,15.19-10.89,5.51-.15-.8.03-1.38-.03-2.33-.15-2.24-3.7,5.93-3.96,6.18-.21.19-.96.45-1.49.2-.47-.22-.47-1.51-.3-2.27.83-3.68,2.32-7.28,3.52-10.53"/>
    <path class="cls-1" d="M4.59,45.32c-.07.03-.09.04-.21.02-.39-.04-.93-.2-1.29-.58-.37-.37-.54-.99-.1-1.98.02-.04.11-.19.17-.23,1.58-.82,3.2-1.51,4.82-2.19,8.87-3.55,18.34-5.46,27.89-5.69l2.94.04s.3.03.81.07c.25.02.55.05.9.08.34.05.72.11,1.12.18,1.61.28,3.64.56,5.26,1.1,5.52,1.48,3.1,1.82-.34,1.69.09.03-.38,0-1.14-.05-.75-.05-1.8-.02-2.85-.05-2.1-.08-4.23.07-4.23.07l-2.42-.03c-9.15.22-18.28,2.07-26.77,5.47-1.55.65-3.1,1.31-4.57,2.07Z"/>
  </g>
</svg>